<?xml version="1.0" encoding="UTF-8"?>
<svg id="Layer_1" data-name="Layer 1" xmlns="http://www.w3.org/2000/svg" viewBox="0 0 293.41 211.85">
  <defs>
    <style>
      .cls-1 {
        fill: #333;
      }
    </style>
  </defs>
  <path class="cls-1" d="M225.55,166.52c0-3.35,2.49-5.69,5.71-5.69s5.76,2.34,5.76,5.69-2.49,5.71-5.76,5.71-5.71-2.36-5.71-5.71ZM236.19,166.52c0-2.92-2.16-4.98-4.91-4.98s-4.91,2.08-4.91,5,2.16,4.93,4.91,4.93,4.91-2.03,4.91-4.96ZM229.1,163.71h2.75c1.04,0,1.86.5,1.86,1.6,0,.67-.35,1.19-.91,1.41v.02c.61.11.82.56.82,1.08v.74c0,.22,0,.45.07.65h-1.06c-.09-.15-.09-.32-.09-.67v-.56c0-.48-.15-.78-.8-.78h-1.56v2.01h-1.08v-5.5ZM231.57,166.39c.71,0,1.04-.37,1.04-.91,0-.63-.39-.87-.99-.87h-1.43v1.77h1.38Z"/>
  <g>
    <path class="cls-1" d="M61.62,5.03L0,41.94l23.22,40.88h40.02c.73-3.38,3.39-6.04,6.77-6.77V11.27c-3.7-.61-6.8-2.98-8.4-6.24Z"/>
    <path class="cls-1" d="M80.51,82.83h32.07c.85-3.98,4.39-6.97,8.63-6.97,1.13,0,2.21.22,3.2.61l16.42-28.49c-2.04-1.62-3.36-4.11-3.36-6.92,0-.91.14-1.78.39-2.61L82.13,5.04c-1.6,3.25-4.7,5.63-8.4,6.23v64.78c3.39.72,6.06,3.39,6.78,6.78Z"/>
    <path class="cls-1" d="M155.13,41.05c0,1.05-.19,2.05-.53,2.99l56.59,32.67c1.99-2.52,4.91-4.27,8.24-4.75V6.46c-3.28-.7-5.88-3.23-6.7-6.46h-40.26l-19.93,34.81c1.6,1.6,2.59,3.81,2.59,6.25Z"/>
    <path class="cls-1" d="M143.9,119.66c.76-.21,1.55-.33,2.38-.33,2.59,0,4.91,1.12,6.52,2.89l56.53-32.76c-.59-1.48-.92-3.08-.92-4.77s.33-3.29.92-4.77l-56.7-32.73c-1.61,1.66-3.85,2.69-6.34,2.69-.74,0-1.45-.1-2.14-.27l-16.69,28.84c1.59,1.6,2.58,3.8,2.58,6.23s-.99,4.66-2.6,6.26l16.46,28.71Z"/>
    <path class="cls-1" d="M149.3,136.45c-.94.34-1.96.54-3.02.54-2.6,0-4.93-1.13-6.55-2.92l-41.99,24.22-14.01,8.08c.45,1.23.71,2.55.71,3.94,0,1.86-.45,3.61-1.24,5.16l62.88,36.38,19.41-33.97c-1.23-1.52-1.97-3.45-1.97-5.56,0-2.56,1.1-4.86,2.84-6.47l-17.06-29.41Z"/>
    <path class="cls-1" d="M270.1,0h-40.26c-.82,3.24-3.41,5.76-6.7,6.46v65.5c3.31.48,6.21,2.21,8.2,4.7l62.06-36.17L270.1,0Z"/>
    <path class="cls-1" d="M211.2,92.67l-56.52,32.75c.28.86.43,1.78.43,2.73,0,2.47-1.02,4.71-2.66,6.31l17.11,29.48c.88-.3,1.82-.46,2.8-.46,3.78,0,6.99,2.38,8.25,5.71h38.89v-71.78c-3.36-.47-6.29-2.22-8.3-4.75Z"/>
    <path class="cls-1" d="M137.87,130.85c-.27-.85-.42-1.76-.42-2.7,0-2.72,1.24-5.16,3.17-6.78l-16.24-28.46c-.99.38-2.05.6-3.17.6-4.24,0-7.78-2.99-8.63-6.97h-32.07c-.73,3.39-3.39,6.06-6.78,6.78v65.59c3.3.2,6.23,1.8,8.18,4.22l9.42-5.43,46.54-26.84Z"/>
  </g>
</svg>